<mxfile host="app.diagrams.net" agent="Mozilla/5.0 (Windows NT 10.0; Win64; x64) AppleWebKit/537.36 (KHTML, like Gecko) Chrome/133.0.0.0 Safari/537.36 Edg/133.0.0.0" version="26.1.0" pages="2">
  <diagram name="Page-1" id="rYCEPGML31gr_Ym3tTMo">
    <mxGraphModel dx="880" dy="523" grid="1" gridSize="10" guides="1" tooltips="1" connect="1" arrows="1" fold="1" page="1" pageScale="1" pageWidth="1200" pageHeight="1920" math="0" shadow="0">
      <root>
        <mxCell id="0" />
        <mxCell id="1" parent="0" />
        <mxCell id="qSoTBaS2VomBnPGAEdwm-1" value="" style="rounded=0;whiteSpace=wrap;html=1;fillColor=none;dashed=1;" parent="1" vertex="1">
          <mxGeometry x="20" y="90" width="120" height="350" as="geometry" />
        </mxCell>
        <mxCell id="qSoTBaS2VomBnPGAEdwm-2" value="&lt;b&gt;&lt;font style=&quot;font-size: 19px;&quot;&gt;Sources&lt;/font&gt;&lt;/b&gt;" style="rounded=0;whiteSpace=wrap;html=1;fillColor=default;strokeColor=none;" parent="1" vertex="1">
          <mxGeometry x="20" y="50" width="120" height="60" as="geometry" />
        </mxCell>
        <mxCell id="qSoTBaS2VomBnPGAEdwm-3" value="" style="rounded=1;whiteSpace=wrap;html=1;fillColor=#ffe6cc;strokeColor=#d79b00;fillStyle=hatch;" parent="1" vertex="1">
          <mxGeometry x="250" y="80" width="180" height="420" as="geometry" />
        </mxCell>
        <mxCell id="qSoTBaS2VomBnPGAEdwm-18" style="edgeStyle=orthogonalEdgeStyle;rounded=0;orthogonalLoop=1;jettySize=auto;html=1;" parent="1" source="qSoTBaS2VomBnPGAEdwm-4" target="qSoTBaS2VomBnPGAEdwm-15" edge="1">
          <mxGeometry relative="1" as="geometry">
            <Array as="points">
              <mxPoint x="180" y="180" />
              <mxPoint x="180" y="180" />
            </Array>
          </mxGeometry>
        </mxCell>
        <mxCell id="qSoTBaS2VomBnPGAEdwm-4" value="" style="image;aspect=fixed;html=1;points=[];align=center;fontSize=12;image=img/lib/azure2/general/Folder_Blank.svg;" parent="1" vertex="1">
          <mxGeometry x="30" y="140" width="69" height="56.00000000000001" as="geometry" />
        </mxCell>
        <mxCell id="qSoTBaS2VomBnPGAEdwm-6" value="" style="shape=image;html=1;verticalAlign=top;verticalLabelPosition=bottom;labelBackgroundColor=#ffffff;imageAspect=0;aspect=fixed;image=https://cdn2.iconfinder.com/data/icons/simple-files/128/CSV.png" parent="1" vertex="1">
          <mxGeometry x="61" y="158" width="38" height="38" as="geometry" />
        </mxCell>
        <mxCell id="qSoTBaS2VomBnPGAEdwm-8" value="&lt;b&gt;&lt;font style=&quot;font-size: 19px;&quot;&gt;Bronze Layer&lt;/font&gt;&lt;/b&gt;" style="rounded=1;whiteSpace=wrap;html=1;fillColor=#ffe6cc;strokeColor=#d79b00;fillStyle=auto;" parent="1" vertex="1">
          <mxGeometry x="265" y="40" width="135" height="40" as="geometry" />
        </mxCell>
        <mxCell id="jJ0MeiKsi690ctzB3Vbq-9" style="edgeStyle=orthogonalEdgeStyle;rounded=0;orthogonalLoop=1;jettySize=auto;html=1;exitX=1;exitY=0.5;exitDx=0;exitDy=0;entryX=0;entryY=0.5;entryDx=0;entryDy=0;" parent="1" source="qSoTBaS2VomBnPGAEdwm-9" target="jJ0MeiKsi690ctzB3Vbq-3" edge="1">
          <mxGeometry relative="1" as="geometry" />
        </mxCell>
        <mxCell id="qSoTBaS2VomBnPGAEdwm-9" value="crm_cust_info" style="rounded=1;whiteSpace=wrap;html=1;fillColor=#ffe6cc;strokeColor=#d79b00;fillStyle=auto;" parent="1" vertex="1">
          <mxGeometry x="265" y="110" width="150" height="40" as="geometry" />
        </mxCell>
        <mxCell id="jJ0MeiKsi690ctzB3Vbq-10" style="edgeStyle=orthogonalEdgeStyle;rounded=0;orthogonalLoop=1;jettySize=auto;html=1;entryX=0;entryY=0.5;entryDx=0;entryDy=0;" parent="1" source="qSoTBaS2VomBnPGAEdwm-15" target="jJ0MeiKsi690ctzB3Vbq-4" edge="1">
          <mxGeometry relative="1" as="geometry" />
        </mxCell>
        <mxCell id="qSoTBaS2VomBnPGAEdwm-15" value="crm_prd_info" style="rounded=1;whiteSpace=wrap;html=1;fillColor=#ffe6cc;strokeColor=#d79b00;fillStyle=auto;" parent="1" vertex="1">
          <mxGeometry x="265" y="160" width="150" height="40" as="geometry" />
        </mxCell>
        <mxCell id="jJ0MeiKsi690ctzB3Vbq-11" style="edgeStyle=orthogonalEdgeStyle;rounded=0;orthogonalLoop=1;jettySize=auto;html=1;exitX=1;exitY=0.5;exitDx=0;exitDy=0;" parent="1" source="qSoTBaS2VomBnPGAEdwm-16" target="jJ0MeiKsi690ctzB3Vbq-5" edge="1">
          <mxGeometry relative="1" as="geometry" />
        </mxCell>
        <mxCell id="qSoTBaS2VomBnPGAEdwm-16" value="crm_sales_details" style="rounded=1;whiteSpace=wrap;html=1;fillColor=#ffe6cc;strokeColor=#d79b00;fillStyle=auto;" parent="1" vertex="1">
          <mxGeometry x="265" y="220" width="150" height="40" as="geometry" />
        </mxCell>
        <mxCell id="qSoTBaS2VomBnPGAEdwm-26" style="edgeStyle=orthogonalEdgeStyle;rounded=0;orthogonalLoop=1;jettySize=auto;html=1;entryX=0;entryY=0.5;entryDx=0;entryDy=0;" parent="1" source="qSoTBaS2VomBnPGAEdwm-4" target="qSoTBaS2VomBnPGAEdwm-9" edge="1">
          <mxGeometry relative="1" as="geometry">
            <mxPoint x="65" y="140" as="sourcePoint" />
            <mxPoint x="250" y="130" as="targetPoint" />
            <Array as="points">
              <mxPoint x="100" y="168" />
              <mxPoint x="100" y="130" />
            </Array>
          </mxGeometry>
        </mxCell>
        <mxCell id="qSoTBaS2VomBnPGAEdwm-35" style="edgeStyle=orthogonalEdgeStyle;rounded=0;orthogonalLoop=1;jettySize=auto;html=1;" parent="1" source="qSoTBaS2VomBnPGAEdwm-4" edge="1">
          <mxGeometry relative="1" as="geometry">
            <mxPoint x="50" y="210" as="sourcePoint" />
            <mxPoint x="260" y="234" as="targetPoint" />
            <Array as="points">
              <mxPoint x="100" y="168" />
              <mxPoint x="100" y="234" />
            </Array>
          </mxGeometry>
        </mxCell>
        <mxCell id="qSoTBaS2VomBnPGAEdwm-37" style="edgeStyle=orthogonalEdgeStyle;rounded=0;orthogonalLoop=1;jettySize=auto;html=1;" parent="1" source="qSoTBaS2VomBnPGAEdwm-38" target="qSoTBaS2VomBnPGAEdwm-41" edge="1">
          <mxGeometry relative="1" as="geometry">
            <Array as="points">
              <mxPoint x="180" y="370" />
              <mxPoint x="180" y="370" />
            </Array>
          </mxGeometry>
        </mxCell>
        <mxCell id="qSoTBaS2VomBnPGAEdwm-38" value="" style="image;aspect=fixed;html=1;points=[];align=center;fontSize=12;image=img/lib/azure2/general/Folder_Blank.svg;" parent="1" vertex="1">
          <mxGeometry x="30" y="330" width="69" height="56.00000000000001" as="geometry" />
        </mxCell>
        <mxCell id="qSoTBaS2VomBnPGAEdwm-39" value="" style="shape=image;html=1;verticalAlign=top;verticalLabelPosition=bottom;labelBackgroundColor=#ffffff;imageAspect=0;aspect=fixed;image=https://cdn2.iconfinder.com/data/icons/simple-files/128/CSV.png" parent="1" vertex="1">
          <mxGeometry x="61" y="348" width="38" height="38" as="geometry" />
        </mxCell>
        <mxCell id="jJ0MeiKsi690ctzB3Vbq-12" style="edgeStyle=orthogonalEdgeStyle;rounded=0;orthogonalLoop=1;jettySize=auto;html=1;exitX=1;exitY=0.5;exitDx=0;exitDy=0;entryX=0;entryY=0.5;entryDx=0;entryDy=0;" parent="1" source="qSoTBaS2VomBnPGAEdwm-40" target="jJ0MeiKsi690ctzB3Vbq-6" edge="1">
          <mxGeometry relative="1" as="geometry" />
        </mxCell>
        <mxCell id="qSoTBaS2VomBnPGAEdwm-40" value="erp_CUST_AZ12" style="rounded=1;whiteSpace=wrap;html=1;fillColor=#ffe6cc;strokeColor=#d79b00;fillStyle=auto;" parent="1" vertex="1">
          <mxGeometry x="265" y="300" width="150" height="40" as="geometry" />
        </mxCell>
        <mxCell id="jJ0MeiKsi690ctzB3Vbq-13" style="edgeStyle=orthogonalEdgeStyle;rounded=0;orthogonalLoop=1;jettySize=auto;html=1;exitX=1;exitY=0.5;exitDx=0;exitDy=0;entryX=0;entryY=0.5;entryDx=0;entryDy=0;" parent="1" source="qSoTBaS2VomBnPGAEdwm-41" target="jJ0MeiKsi690ctzB3Vbq-7" edge="1">
          <mxGeometry relative="1" as="geometry" />
        </mxCell>
        <mxCell id="qSoTBaS2VomBnPGAEdwm-41" value="erp_LOC_A101" style="rounded=1;whiteSpace=wrap;html=1;fillColor=#ffe6cc;strokeColor=#d79b00;fillStyle=auto;" parent="1" vertex="1">
          <mxGeometry x="265" y="350" width="150" height="40" as="geometry" />
        </mxCell>
        <mxCell id="jJ0MeiKsi690ctzB3Vbq-14" style="edgeStyle=orthogonalEdgeStyle;rounded=0;orthogonalLoop=1;jettySize=auto;html=1;exitX=1;exitY=0.5;exitDx=0;exitDy=0;entryX=0;entryY=0.5;entryDx=0;entryDy=0;" parent="1" source="qSoTBaS2VomBnPGAEdwm-42" target="jJ0MeiKsi690ctzB3Vbq-8" edge="1">
          <mxGeometry relative="1" as="geometry" />
        </mxCell>
        <mxCell id="qSoTBaS2VomBnPGAEdwm-42" value="erp_PX_CAT_G1V2" style="rounded=1;whiteSpace=wrap;html=1;fillColor=#ffe6cc;strokeColor=#d79b00;fillStyle=auto;" parent="1" vertex="1">
          <mxGeometry x="265" y="410" width="150" height="40" as="geometry" />
        </mxCell>
        <mxCell id="qSoTBaS2VomBnPGAEdwm-43" style="edgeStyle=orthogonalEdgeStyle;rounded=0;orthogonalLoop=1;jettySize=auto;html=1;entryX=0;entryY=0.5;entryDx=0;entryDy=0;" parent="1" source="qSoTBaS2VomBnPGAEdwm-38" target="qSoTBaS2VomBnPGAEdwm-40" edge="1">
          <mxGeometry relative="1" as="geometry">
            <mxPoint x="65" y="330" as="sourcePoint" />
            <mxPoint x="250" y="320" as="targetPoint" />
            <Array as="points">
              <mxPoint x="100" y="358" />
              <mxPoint x="100" y="320" />
            </Array>
          </mxGeometry>
        </mxCell>
        <mxCell id="qSoTBaS2VomBnPGAEdwm-44" style="edgeStyle=orthogonalEdgeStyle;rounded=0;orthogonalLoop=1;jettySize=auto;html=1;" parent="1" source="qSoTBaS2VomBnPGAEdwm-38" edge="1">
          <mxGeometry relative="1" as="geometry">
            <mxPoint x="50" y="400" as="sourcePoint" />
            <mxPoint x="260" y="424" as="targetPoint" />
            <Array as="points">
              <mxPoint x="100" y="358" />
              <mxPoint x="100" y="424" />
            </Array>
          </mxGeometry>
        </mxCell>
        <mxCell id="jJ0MeiKsi690ctzB3Vbq-1" value="" style="rounded=1;whiteSpace=wrap;html=1;fillColor=#f5f5f5;strokeColor=#666666;fillStyle=hatch;fontColor=#333333;" parent="1" vertex="1">
          <mxGeometry x="490" y="80" width="180" height="420" as="geometry" />
        </mxCell>
        <mxCell id="jJ0MeiKsi690ctzB3Vbq-2" value="&lt;b&gt;&lt;font style=&quot;font-size: 19px;&quot;&gt;Silver Layer&lt;/font&gt;&lt;/b&gt;" style="rounded=1;whiteSpace=wrap;html=1;fillColor=#f5f5f5;strokeColor=#666666;fillStyle=auto;fontColor=#333333;" parent="1" vertex="1">
          <mxGeometry x="512.5" y="40" width="135" height="40" as="geometry" />
        </mxCell>
        <mxCell id="gycypUgVfc1XUxTynpiT-13" style="edgeStyle=orthogonalEdgeStyle;rounded=0;orthogonalLoop=1;jettySize=auto;html=1;entryX=0;entryY=0.25;entryDx=0;entryDy=0;jumpStyle=gap;" parent="1" source="jJ0MeiKsi690ctzB3Vbq-3" target="gycypUgVfc1XUxTynpiT-4" edge="1">
          <mxGeometry relative="1" as="geometry" />
        </mxCell>
        <mxCell id="jJ0MeiKsi690ctzB3Vbq-3" value="crm_cust_info" style="rounded=1;whiteSpace=wrap;html=1;fillColor=#f5f5f5;strokeColor=#666666;fillStyle=auto;fontColor=#333333;" parent="1" vertex="1">
          <mxGeometry x="505" y="110" width="150" height="40" as="geometry" />
        </mxCell>
        <mxCell id="gycypUgVfc1XUxTynpiT-15" style="edgeStyle=orthogonalEdgeStyle;rounded=0;orthogonalLoop=1;jettySize=auto;html=1;entryX=0;entryY=0.25;entryDx=0;entryDy=0;jumpStyle=gap;" parent="1" source="jJ0MeiKsi690ctzB3Vbq-4" target="gycypUgVfc1XUxTynpiT-5" edge="1">
          <mxGeometry relative="1" as="geometry">
            <Array as="points">
              <mxPoint x="699" y="180" />
              <mxPoint x="699" y="320" />
              <mxPoint x="743" y="320" />
            </Array>
          </mxGeometry>
        </mxCell>
        <mxCell id="jJ0MeiKsi690ctzB3Vbq-4" value="crm_prd_info" style="rounded=1;whiteSpace=wrap;html=1;fillColor=#f5f5f5;strokeColor=#666666;fillStyle=auto;fontColor=#333333;" parent="1" vertex="1">
          <mxGeometry x="505" y="160" width="150" height="40" as="geometry" />
        </mxCell>
        <mxCell id="gycypUgVfc1XUxTynpiT-14" style="edgeStyle=orthogonalEdgeStyle;rounded=0;orthogonalLoop=1;jettySize=auto;html=1;entryX=0;entryY=0.5;entryDx=0;entryDy=0;jumpStyle=gap;" parent="1" source="jJ0MeiKsi690ctzB3Vbq-5" target="gycypUgVfc1XUxTynpiT-3" edge="1">
          <mxGeometry relative="1" as="geometry" />
        </mxCell>
        <mxCell id="jJ0MeiKsi690ctzB3Vbq-5" value="crm_sales_details" style="rounded=1;whiteSpace=wrap;html=1;fillColor=#f5f5f5;strokeColor=#666666;fillStyle=auto;fontColor=#333333;" parent="1" vertex="1">
          <mxGeometry x="505" y="220" width="150" height="40" as="geometry" />
        </mxCell>
        <mxCell id="gycypUgVfc1XUxTynpiT-10" style="edgeStyle=orthogonalEdgeStyle;rounded=0;orthogonalLoop=1;jettySize=auto;html=1;entryX=0;entryY=0.75;entryDx=0;entryDy=0;jumpStyle=gap;" parent="1" source="jJ0MeiKsi690ctzB3Vbq-6" target="gycypUgVfc1XUxTynpiT-4" edge="1">
          <mxGeometry relative="1" as="geometry" />
        </mxCell>
        <mxCell id="jJ0MeiKsi690ctzB3Vbq-6" value="erp_CUST_AZ12" style="rounded=1;whiteSpace=wrap;html=1;fillColor=#f5f5f5;strokeColor=#666666;fillStyle=auto;fontColor=#333333;" parent="1" vertex="1">
          <mxGeometry x="505" y="300" width="150" height="40" as="geometry" />
        </mxCell>
        <mxCell id="gycypUgVfc1XUxTynpiT-11" style="edgeStyle=orthogonalEdgeStyle;rounded=0;orthogonalLoop=1;jettySize=auto;html=1;entryX=0;entryY=0.75;entryDx=0;entryDy=0;jumpStyle=gap;" parent="1" source="jJ0MeiKsi690ctzB3Vbq-7" target="gycypUgVfc1XUxTynpiT-4" edge="1">
          <mxGeometry relative="1" as="geometry" />
        </mxCell>
        <mxCell id="jJ0MeiKsi690ctzB3Vbq-7" value="erp_LOC_A101" style="rounded=1;whiteSpace=wrap;html=1;fillColor=#f5f5f5;strokeColor=#666666;fillStyle=auto;fontColor=#333333;" parent="1" vertex="1">
          <mxGeometry x="505" y="350" width="150" height="40" as="geometry" />
        </mxCell>
        <mxCell id="gycypUgVfc1XUxTynpiT-16" style="edgeStyle=orthogonalEdgeStyle;rounded=0;orthogonalLoop=1;jettySize=auto;html=1;jumpStyle=gap;" parent="1" source="jJ0MeiKsi690ctzB3Vbq-8" target="gycypUgVfc1XUxTynpiT-5" edge="1">
          <mxGeometry relative="1" as="geometry" />
        </mxCell>
        <mxCell id="jJ0MeiKsi690ctzB3Vbq-8" value="erp_PX_CAT_G1V2" style="rounded=1;whiteSpace=wrap;html=1;fillColor=#f5f5f5;strokeColor=#666666;fillStyle=auto;fontColor=#333333;" parent="1" vertex="1">
          <mxGeometry x="505" y="410" width="150" height="40" as="geometry" />
        </mxCell>
        <mxCell id="gycypUgVfc1XUxTynpiT-1" value="" style="rounded=1;whiteSpace=wrap;html=1;fillColor=#fff2cc;strokeColor=#d6b656;fillStyle=hatch;" parent="1" vertex="1">
          <mxGeometry x="720" y="80" width="180" height="420" as="geometry" />
        </mxCell>
        <mxCell id="gycypUgVfc1XUxTynpiT-2" value="&lt;b&gt;&lt;font style=&quot;font-size: 19px;&quot;&gt;Gold Layer&lt;/font&gt;&lt;/b&gt;" style="rounded=1;whiteSpace=wrap;html=1;fillColor=#fff2cc;strokeColor=#d6b656;fillStyle=auto;" parent="1" vertex="1">
          <mxGeometry x="742.5" y="40" width="135" height="40" as="geometry" />
        </mxCell>
        <mxCell id="gycypUgVfc1XUxTynpiT-3" value="Fact sales" style="rounded=1;whiteSpace=wrap;html=1;fillColor=#fff2cc;strokeColor=#d6b656;fillStyle=auto;" parent="1" vertex="1">
          <mxGeometry x="742.5" y="220" width="150" height="40" as="geometry" />
        </mxCell>
        <mxCell id="gycypUgVfc1XUxTynpiT-4" value="Cust_dim" style="rounded=1;whiteSpace=wrap;html=1;fillColor=#fff2cc;strokeColor=#d6b656;fillStyle=auto;" parent="1" vertex="1">
          <mxGeometry x="742.5" y="118" width="150" height="40" as="geometry" />
        </mxCell>
        <mxCell id="gycypUgVfc1XUxTynpiT-5" value="Prod_dim" style="rounded=1;whiteSpace=wrap;html=1;fillColor=#fff2cc;strokeColor=#d6b656;fillStyle=auto;" parent="1" vertex="1">
          <mxGeometry x="742.5" y="300" width="150" height="40" as="geometry" />
        </mxCell>
      </root>
    </mxGraphModel>
  </diagram>
  <diagram id="dGBGtxWuSyjre_UICzzv" name="Page-2">
    <mxGraphModel dx="704" dy="418" grid="1" gridSize="10" guides="1" tooltips="1" connect="1" arrows="1" fold="1" page="1" pageScale="1" pageWidth="1200" pageHeight="1920" math="0" shadow="0">
      <root>
        <mxCell id="0" />
        <mxCell id="1" parent="0" />
      </root>
    </mxGraphModel>
  </diagram>
</mxfile>
